REM DIRINDEX 1\6,1\2\7,1\2\8,1\2\9,1\3\10,1\3\11,1\4\12,1\4\13,1\4\14,1\5\15,1\5\16,1\5\17
REM DIRNAME folder01,folder02,folder03,folder04,folder05,folder06,folder07,folder08,folder09,folder10,folder11,folder12,folder13,folder14,folder15,folder16,folder17
TITLE ""
FILE "P2Q_t2_0911-0928.mp3" MP3
  TRACK 01 AUDIO
    TITLE "7:cjc040_6566"
    INDEX 01 00:00:00
  TRACK 02 AUDIO
    TITLE "0:"
    INDEX 01 00:01:01
  TRACK 03 AUDIO
    TITLE "8:cjc040_6567"
    INDEX 01 00:01:58
  TRACK 04 AUDIO
    TITLE "0:"
    INDEX 01 00:02:51
  TRACK 05 AUDIO
    TITLE "9:cjc040_6568"
    INDEX 01 00:03:29
  TRACK 06 AUDIO
    TITLE "0:"
    INDEX 01 00:04:48
  TRACK 07 AUDIO
    TITLE "7:cjc040_6569"
    INDEX 01 00:06:37
  TRACK 08 AUDIO
    TITLE "0:"
    INDEX 01 00:07:60
  TRACK 09 AUDIO
    TITLE "8:cjc040_6570"
    INDEX 01 00:08:34
  TRACK 10 AUDIO
    TITLE "0:"
    INDEX 01 00:10:39
  TRACK 11 AUDIO
    TITLE "9:cjc040_6571"
    INDEX 01 00:11:17
  TRACK 12 AUDIO
    TITLE "0:"
    INDEX 01 00:12:38
  TRACK 13 AUDIO
    TITLE "7:cjc040_6572"
    INDEX 01 00:14:21
  TRACK 14 AUDIO
    TITLE "0:"
    INDEX 01 00:15:44
  TRACK 15 AUDIO
    TITLE "8:cjc040_6573"
    INDEX 01 00:16:20
  TRACK 16 AUDIO
    TITLE "0:"
    INDEX 01 00:17:37
  TRACK 17 AUDIO
    TITLE "9:cjc040_6574"
    INDEX 01 00:18:11
  TRACK 18 AUDIO
    TITLE "0:"
    INDEX 01 00:19:36
  TRACK 19 AUDIO
    TITLE "7:cjc040_6575"
    INDEX 01 00:21:13
  TRACK 20 AUDIO
    TITLE "0:"
    INDEX 01 00:22:17
  TRACK 21 AUDIO
    TITLE "8:cjc040_6576"
    INDEX 01 00:23:04
  TRACK 22 AUDIO
    TITLE "0:"
    INDEX 01 00:24:49
  TRACK 23 AUDIO
    TITLE "9:cjc040_6577"
    INDEX 01 00:25:27
  TRACK 24 AUDIO
    TITLE "0:"
    INDEX 01 00:26:38
  TRACK 25 AUDIO
    TITLE "7:cjc040_6578"
    INDEX 01 00:28:21
  TRACK 26 AUDIO
    TITLE "0:"
    INDEX 01 00:29:34
  TRACK 27 AUDIO
    TITLE "8:cjc040_6579"
    INDEX 01 00:30:14
  TRACK 28 AUDIO
    TITLE "0:"
    INDEX 01 00:33:30
  TRACK 29 AUDIO
    TITLE "9:cjc040_6580"
    INDEX 01 00:34:08
  TRACK 30 AUDIO
    TITLE "0:"
    INDEX 01 00:35:23
  TRACK 31 AUDIO
    TITLE "7:cjc040_6581"
    INDEX 01 00:37:01
  TRACK 32 AUDIO
    TITLE "0:"
    INDEX 01 00:38:26
  TRACK 33 AUDIO
    TITLE "8:cjc040_6582"
    INDEX 01 00:39:05
  TRACK 34 AUDIO
    TITLE "0:"
    INDEX 01 00:41:16
  TRACK 35 AUDIO
    TITLE "9:cjc040_6583"
    INDEX 01 00:41:69
  TRACK 36 AUDIO
    TITLE "0:"
    INDEX 01 00:43:25
  TRACK 37 AUDIO
    TITLE "7:cjc040_6584"
    INDEX 01 00:45:06
  TRACK 38 AUDIO
    TITLE "0:"
    INDEX 01 00:46:17
  TRACK 39 AUDIO
    TITLE "8:cjc040_6585"
    INDEX 01 00:46:70
  TRACK 40 AUDIO
    TITLE "0:"
    INDEX 01 00:49:72
  TRACK 41 AUDIO
    TITLE "9:cjc040_6586"
    INDEX 01 00:50:54
  TRACK 42 AUDIO
    TITLE "0:"
    INDEX 01 00:51:63
  TRACK 43 AUDIO
    TITLE "7:cjc040_6587"
    INDEX 01 00:53:45
  TRACK 44 AUDIO
    TITLE "0:"
    INDEX 01 00:54:62
  TRACK 45 AUDIO
    TITLE "8:cjc040_6588"
    INDEX 01 00:55:44
  TRACK 46 AUDIO
    TITLE "0:"
    INDEX 01 00:57:01
  TRACK 47 AUDIO
    TITLE "9:cjc040_6589"
    INDEX 01 00:57:43
  TRACK 48 AUDIO
    TITLE "0:"
    INDEX 01 00:58:62
  TRACK 49 AUDIO
    TITLE "7:cjc040_6590"
    INDEX 01 01:00:39
  TRACK 50 AUDIO
    TITLE "0:"
    INDEX 01 01:01:74
  TRACK 51 AUDIO
    TITLE "8:cjc040_6591"
    INDEX 01 01:02:48
  TRACK 52 AUDIO
    TITLE "0:"
    INDEX 01 01:05:38
  TRACK 53 AUDIO
    TITLE "9:cjc040_6592"
    INDEX 01 01:06:14
  TRACK 54 AUDIO
    TITLE "0:"
    INDEX 01 01:07:47
  TRACK 55 AUDIO
    TITLE "7:cjc040_6593"
    INDEX 01 01:09:22
  TRACK 56 AUDIO
    TITLE "0:"
    INDEX 01 01:10:33
  TRACK 57 AUDIO
    TITLE "8:cjc040_6594"
    INDEX 01 01:11:11
  TRACK 58 AUDIO
    TITLE "0:"
    INDEX 01 01:12:13
  TRACK 59 AUDIO
    TITLE "9:cjc040_6595"
    INDEX 01 01:12:68
  TRACK 60 AUDIO
    TITLE "0:"
    INDEX 01 01:14:08
  TRACK 61 AUDIO
    TITLE "7:cjc040_6596"
    INDEX 01 01:15:64
  TRACK 62 AUDIO
    TITLE "0:"
    INDEX 01 01:17:08
  TRACK 63 AUDIO
    TITLE "8:cjc040_6597"
    INDEX 01 01:17:59
  TRACK 64 AUDIO
    TITLE "0:"
    INDEX 01 01:19:01
  TRACK 65 AUDIO
    TITLE "9:cjc040_6598"
    INDEX 01 01:19:58
  TRACK 66 AUDIO
    TITLE "0:"
    INDEX 01 01:21:04
  TRACK 67 AUDIO
    TITLE "7:cjc040_6599"
    INDEX 01 01:22:66
  TRACK 68 AUDIO
    TITLE "0:"
    INDEX 01 01:23:69
  TRACK 69 AUDIO
    TITLE "8:cjc040_6600"
    INDEX 01 01:24:47
  TRACK 70 AUDIO
    TITLE "0:"
    INDEX 01 01:26:48
  TRACK 71 AUDIO
    TITLE "9:cjc040_6601"
    INDEX 01 01:27:20
  TRACK 72 AUDIO
    TITLE "0:"
    INDEX 01 01:28:25
  TRACK 73 AUDIO
    TITLE "7:cjc040_6602"
    INDEX 01 01:30:07
  TRACK 74 AUDIO
    TITLE "0:"
    INDEX 01 01:31:20
  TRACK 75 AUDIO
    TITLE "8:cjc040_6603"
    INDEX 01 01:31:73
  TRACK 76 AUDIO
    TITLE "0:"
    INDEX 01 01:33:19
  TRACK 77 AUDIO
    TITLE "9:cjc040_6604"
    INDEX 01 01:33:74
  TRACK 78 AUDIO
    TITLE "0:"
    INDEX 01 01:35:14
  TRACK 79 AUDIO
    TITLE "7:cjc040_6605"
    INDEX 01 01:37:01
  TRACK 80 AUDIO
    TITLE "0:"
    INDEX 01 01:38:12
  TRACK 81 AUDIO
    TITLE "8:cjc040_6606"
    INDEX 01 01:38:59
  TRACK 82 AUDIO
    TITLE "0:"
    INDEX 01 01:39:59
  TRACK 83 AUDIO
    TITLE "9:cjc040_6607"
    INDEX 01 01:40:35
  TRACK 84 AUDIO
    TITLE "0:"
    INDEX 01 01:41:44
  TRACK 85 AUDIO
    TITLE "7:cjc040_6608"
    INDEX 01 01:43:29
  TRACK 86 AUDIO
    TITLE "0:"
    INDEX 01 01:44:44
  TRACK 87 AUDIO
    TITLE "8:cjc040_6609"
    INDEX 01 01:45:24
  TRACK 88 AUDIO
    TITLE "0:"
    INDEX 01 01:47:44
  TRACK 89 AUDIO
    TITLE "9:cjc040_6610"
    INDEX 01 01:48:14
  TRACK 90 AUDIO
    TITLE "0:"
    INDEX 01 01:49:26
  TRACK 91 AUDIO
    TITLE "7:cjc040_6611"
    INDEX 01 01:51:09
  TRACK 92 AUDIO
    TITLE "0:"
    INDEX 01 01:52:16
  TRACK 93 AUDIO
    TITLE "8:cjc040_6612"
    INDEX 01 01:52:67
  TRACK 94 AUDIO
    TITLE "0:"
    INDEX 01 01:53:70
  TRACK 95 AUDIO
    TITLE "9:cjc040_6613"
    INDEX 01 01:54:42
  TRACK 96 AUDIO
    TITLE "0:"
    INDEX 01 01:55:50
  TRACK 97 AUDIO
    TITLE "7:cjc040_6614"
    INDEX 01 01:57:37
  TRACK 98 AUDIO
    TITLE "0:"
    INDEX 01 01:58:46
  TRACK 99 AUDIO
    TITLE "8:cjc040_6615"
    INDEX 01 01:59:22
  TRACK 100 AUDIO
    TITLE "0:"
    INDEX 01 02:02:13
  TRACK 101 AUDIO
    TITLE "9:cjc040_6616"
    INDEX 01 02:02:64
  TRACK 102 AUDIO
    TITLE "0:"
    INDEX 01 02:03:71
  TRACK 103 AUDIO
    TITLE "7:cjc040_6617"
    INDEX 01 02:05:50
  TRACK 104 AUDIO
    TITLE "0:"
    INDEX 01 02:07:08
  TRACK 105 AUDIO
    TITLE "8:cjc040_6618"
    INDEX 01 02:07:67
  TRACK 106 AUDIO
    TITLE "0:"
    INDEX 01 02:11:17
  TRACK 107 AUDIO
    TITLE "9:cjc040_6619"
    INDEX 01 02:11:68
  TRACK 108 AUDIO
    TITLE "0:"
    INDEX 01 02:13:26
